<?xml version="1.0" encoding="utf-8"?>
<!-- Generator: Adobe Illustrator 26.0.1, SVG Export Plug-In . SVG Version: 6.00 Build 0)  -->
<svg version="1.1" xmlns="http://www.w3.org/2000/svg" xmlns:xlink="http://www.w3.org/1999/xlink" x="0px" y="0px"
	 viewBox="0 0 450 100" enable-background="new 0 0 450 100" xml:space="preserve">
<g id="Layer_2">
	<g>
		<g enable-background="new    ">
			<path fill="#608F34" d="M147.4,8.8h38V18h-25v14.2h19.2v9.1h-19.2v15.3h27.6V66h-40.6V8.8z"/>
			<path fill="#608F34" d="M218.2,22.6c5.9,0,10.6,1.1,12.1,2.2l-1.6,9.1c-2.3-1.1-4.9-1.7-9.2-1.7c-5.4,0-11.7,2.9-11.9,11.5
				c-0.3,9.2,4.8,13.5,11.4,13.5c4.3,0,8.3-0.8,10.1-1.8l1.8,7c-2.9,2.6-8.4,4.2-14.3,4.2c-14.5,0-21.8-9.2-21.8-21.5
				C194.9,32.5,202.4,22.6,218.2,22.6z"/>
			<path fill="#608F34" d="M261,22.6c16.5,0,22.5,10.7,22.3,22.9c-0.2,13.8-9.9,21.1-23.1,21.1c-16.5,0-22.5-10.7-22.3-22.9
				C238.1,30,247.8,22.6,261,22.6z M270.1,45c0-7.3-2.6-13.9-9.3-14c-6.8,0-9.7,4.8-9.7,13.1c0,7.5,2.7,14.3,9.4,14.4
				C267.2,58.4,270.1,53.6,270.1,45z"/>
			<path fill="#2A47BD" d="M294.5,8.8h3.9c4.4,0,8.7-0.6,13.8-0.6c12.3,0,20,5.5,20,18.5c0,12.4-7.6,19.7-21.9,19.7
				c-3.6,0-5.9-0.2-7.4-0.2V66h-8.4V8.8z M309.8,40.3c7.3,0,14-2.2,14-13.4c0-9.2-5-12.9-14.1-12.6c-2.3,0.1-4.7,0.2-6.8,0.7v24.9
				C305.4,40.2,307.6,40.3,309.8,40.3z"/>
			<path fill="#2A47BD" d="M342.4,3.5h8.3V66h-8.3V3.5z"/>
			<path fill="#2A47BD" d="M380.8,22.6c8.5-0.2,15.5,5.5,15.8,16.2c0,3.2,0,5.8-0.4,7.7h-26.4c0,0.3,0,0.5,0,0.8
				c0.5,10.1,6.1,13.2,13.1,13.2c2.9,0,8.6-1.1,10.7-2.3l1.6,4.7c-2.8,2.3-9.3,3.8-14.5,3.8c-12.2,0-19-8.2-19-22.1
				C361.6,32.1,368.2,22.8,380.8,22.6z M388.8,40.9c0.4-6.1-1-12.5-8.5-12.5c-5.2,0-9.4,3.2-10.4,12.5H388.8z"/>
			<path fill="#2A47BD" d="M417.2,44.3L402,23.2h9.4l9.4,14.2l0.9,1.6l0.8-1.7l9.4-14.1h9.3l-15.2,21L441.6,66H432l-9.4-14.2
				l-1.3-2.1l-1.1,2.2L411.5,66h-9.4L417.2,44.3z"/>
		</g>
		<g>
			<path fill="#7D7D7F" d="M158.1,92.6l0,1.9h-10.8V77.1h10.8V79h-8.4v5.8h6.8v1.9h-6.8v6H158.1z"/>
			<path fill="#7D7D7F" d="M168.4,84.4c-0.1,0.1-0.1,0.2-0.2,0.2c-0.1,0-0.2,0.1-0.3,0.1c-0.1,0-0.3-0.1-0.4-0.2s-0.3-0.2-0.5-0.3
				c-0.2-0.1-0.5-0.2-0.8-0.3s-0.7-0.2-1.2-0.2c-0.6,0-1.1,0.1-1.6,0.3c-0.5,0.2-0.9,0.5-1.2,0.9c-0.3,0.4-0.5,0.9-0.7,1.5
				c-0.2,0.6-0.2,1.2-0.2,1.9c0,0.7,0.1,1.4,0.3,2c0.2,0.6,0.4,1.1,0.7,1.5c0.3,0.4,0.7,0.7,1.1,0.9s0.9,0.3,1.5,0.3
				c0.5,0,1-0.1,1.3-0.2c0.3-0.1,0.6-0.3,0.8-0.4s0.4-0.3,0.6-0.4c0.1-0.1,0.3-0.2,0.4-0.2c0.2,0,0.3,0.1,0.4,0.2l0.6,0.8
				c-0.3,0.3-0.6,0.6-0.9,0.9c-0.3,0.2-0.7,0.4-1.1,0.6c-0.4,0.2-0.8,0.3-1.2,0.3c-0.4,0.1-0.9,0.1-1.3,0.1c-0.8,0-1.5-0.1-2.2-0.4
				c-0.7-0.3-1.2-0.7-1.7-1.2c-0.5-0.5-0.9-1.2-1.1-2s-0.4-1.7-0.4-2.7c0-0.9,0.1-1.8,0.4-2.5c0.3-0.8,0.6-1.5,1.1-2
				c0.5-0.6,1.1-1,1.8-1.3c0.7-0.3,1.5-0.5,2.5-0.5c0.9,0,1.6,0.1,2.3,0.4s1.2,0.7,1.8,1.2L168.4,84.4z"/>
			<path fill="#7D7D7F" d="M176,82c0.9,0,1.7,0.2,2.4,0.5c0.7,0.3,1.3,0.7,1.9,1.3s0.9,1.2,1.2,2c0.3,0.8,0.4,1.7,0.4,2.6
				c0,1-0.1,1.9-0.4,2.6c-0.3,0.8-0.7,1.4-1.2,2s-1.1,1-1.9,1.3c-0.7,0.3-1.5,0.4-2.4,0.4c-0.9,0-1.7-0.1-2.5-0.4s-1.3-0.7-1.9-1.3
				c-0.5-0.6-0.9-1.2-1.2-2c-0.3-0.8-0.4-1.7-0.4-2.6c0-1,0.1-1.8,0.4-2.6c0.3-0.8,0.7-1.5,1.2-2c0.5-0.6,1.1-1,1.9-1.3
				C174.2,82.1,175.1,82,176,82z M176,93c1.2,0,2.1-0.4,2.7-1.2c0.6-0.8,0.9-2,0.9-3.4c0-1.5-0.3-2.6-0.9-3.4
				c-0.6-0.8-1.5-1.2-2.7-1.2c-0.6,0-1.2,0.1-1.6,0.3c-0.5,0.2-0.8,0.5-1.1,0.9s-0.5,0.9-0.7,1.5s-0.2,1.2-0.2,2
				c0,1.5,0.3,2.6,0.9,3.4C173.8,92.6,174.7,93,176,93z"/>
			<path fill="#7D7D7F" d="M205.5,85.8c0,1.3-0.2,2.5-0.6,3.6c-0.4,1.1-1,2-1.8,2.8c-0.8,0.8-1.7,1.4-2.7,1.8
				c-1.1,0.4-2.2,0.6-3.5,0.6h-6.5V77.1h6.5c1.3,0,2.5,0.2,3.5,0.6c1.1,0.4,2,1,2.7,1.8c0.8,0.8,1.3,1.7,1.8,2.8
				C205.3,83.3,205.5,84.5,205.5,85.8z M203.1,85.8c0-1.1-0.1-2-0.4-2.9c-0.3-0.8-0.7-1.6-1.2-2.1s-1.2-1-2-1.3
				c-0.8-0.3-1.6-0.5-2.6-0.5h-4.2v13.6h4.2c0.9,0,1.8-0.2,2.6-0.5s1.4-0.8,2-1.3s1-1.3,1.2-2.1C202.9,87.8,203.1,86.9,203.1,85.8z"
				/>
			<path fill="#7D7D7F" d="M217.8,92.8c-0.3,0.3-0.6,0.6-1,0.8c-0.4,0.2-0.8,0.4-1.2,0.6c-0.4,0.2-0.9,0.3-1.3,0.3s-0.9,0.1-1.4,0.1
				c-0.9,0-1.6-0.1-2.4-0.4c-0.7-0.3-1.3-0.7-1.9-1.3c-0.5-0.6-0.9-1.2-1.2-2.1c-0.3-0.8-0.4-1.8-0.4-2.8c0-0.9,0.1-1.7,0.4-2.4
				c0.3-0.7,0.6-1.4,1.1-1.9c0.5-0.5,1.1-1,1.8-1.3c0.7-0.3,1.5-0.5,2.4-0.5c0.7,0,1.4,0.1,2.1,0.4c0.6,0.2,1.2,0.6,1.6,1.1
				c0.5,0.5,0.8,1,1.1,1.7s0.4,1.5,0.4,2.3c0,0.3,0,0.6-0.1,0.7c-0.1,0.1-0.2,0.2-0.4,0.2h-8.3c0,0.8,0.1,1.5,0.3,2
				c0.2,0.6,0.5,1.1,0.8,1.4c0.3,0.4,0.7,0.7,1.2,0.9c0.5,0.2,1,0.3,1.6,0.3c0.5,0,1-0.1,1.4-0.2s0.7-0.3,1-0.4
				c0.3-0.1,0.5-0.3,0.7-0.4c0.2-0.1,0.4-0.2,0.5-0.2c0.2,0,0.3,0.1,0.4,0.2L217.8,92.8z M216,87c0-0.5-0.1-1-0.2-1.4
				c-0.1-0.4-0.3-0.8-0.6-1.1c-0.3-0.3-0.6-0.5-1-0.7c-0.4-0.2-0.8-0.2-1.3-0.2c-1,0-1.9,0.3-2.5,0.9c-0.6,0.6-1,1.4-1.1,2.5H216z"
				/>
			<path fill="#7D7D7F" d="M227.3,84.2c-0.1,0.2-0.2,0.3-0.5,0.3c-0.1,0-0.3,0-0.4-0.1c-0.2-0.1-0.3-0.2-0.6-0.3
				c-0.2-0.1-0.5-0.2-0.8-0.3c-0.3-0.1-0.7-0.1-1.1-0.1c-0.4,0-0.7,0-1,0.1c-0.3,0.1-0.5,0.2-0.8,0.4c-0.2,0.2-0.4,0.4-0.5,0.6
				c-0.1,0.2-0.2,0.4-0.2,0.7c0,0.3,0.1,0.6,0.3,0.8s0.4,0.4,0.7,0.5c0.3,0.2,0.6,0.3,1,0.4s0.8,0.2,1.2,0.4
				c0.4,0.1,0.8,0.3,1.2,0.4c0.4,0.2,0.7,0.4,1,0.6c0.3,0.2,0.5,0.5,0.7,0.9c0.2,0.4,0.3,0.8,0.3,1.3c0,0.6-0.1,1.1-0.3,1.6
				s-0.5,0.9-0.9,1.3c-0.4,0.4-0.9,0.6-1.5,0.8c-0.6,0.2-1.2,0.3-2,0.3c-0.9,0-1.6-0.1-2.3-0.4c-0.7-0.3-1.3-0.6-1.8-1.1l0.5-0.8
				c0.1-0.1,0.1-0.2,0.2-0.2c0.1-0.1,0.2-0.1,0.3-0.1c0.1,0,0.3,0.1,0.5,0.2c0.2,0.1,0.4,0.2,0.6,0.4c0.2,0.1,0.5,0.3,0.8,0.4
				c0.3,0.1,0.7,0.2,1.2,0.2c0.4,0,0.8-0.1,1.1-0.2c0.3-0.1,0.6-0.3,0.8-0.4c0.2-0.2,0.4-0.4,0.5-0.6c0.1-0.2,0.2-0.5,0.2-0.8
				c0-0.3-0.1-0.6-0.3-0.8s-0.4-0.4-0.7-0.6s-0.6-0.3-1-0.4c-0.4-0.1-0.8-0.2-1.2-0.4c-0.4-0.1-0.8-0.3-1.2-0.4
				c-0.4-0.2-0.7-0.4-1-0.6s-0.5-0.6-0.7-0.9c-0.2-0.4-0.3-0.8-0.3-1.3c0-0.5,0.1-0.9,0.3-1.4c0.2-0.4,0.5-0.8,0.9-1.1
				c0.4-0.3,0.8-0.6,1.4-0.8c0.5-0.2,1.2-0.3,1.9-0.3c0.8,0,1.5,0.1,2.2,0.4c0.6,0.3,1.2,0.6,1.7,1.1L227.3,84.2z"/>
			<path fill="#7D7D7F" d="M233,78.3c0,0.2,0,0.4-0.1,0.6s-0.2,0.3-0.3,0.5c-0.1,0.1-0.3,0.3-0.5,0.3c-0.2,0.1-0.4,0.1-0.6,0.1
				c-0.2,0-0.4,0-0.6-0.1c-0.2-0.1-0.3-0.2-0.5-0.3c-0.1-0.1-0.2-0.3-0.3-0.5s-0.1-0.4-0.1-0.6c0-0.2,0-0.4,0.1-0.6
				c0.1-0.2,0.2-0.4,0.3-0.5c0.1-0.1,0.3-0.3,0.5-0.3c0.2-0.1,0.4-0.1,0.6-0.1c0.2,0,0.4,0,0.6,0.1c0.2,0.1,0.4,0.2,0.5,0.3
				c0.1,0.1,0.3,0.3,0.3,0.5C232.9,77.9,233,78.1,233,78.3z M232.5,82.2v12.3h-2.2V82.2H232.5z"/>
			<path fill="#7D7D7F" d="M246,82.7v0.8c0,0.3-0.2,0.4-0.5,0.5l-1.4,0.2c0.3,0.5,0.4,1.1,0.4,1.8c0,0.6-0.1,1.1-0.3,1.6
				c-0.2,0.5-0.6,0.9-1,1.3c-0.4,0.3-0.9,0.6-1.5,0.8c-0.6,0.2-1.2,0.3-1.9,0.3c-0.6,0-1.1-0.1-1.6-0.2c-0.3,0.2-0.5,0.3-0.6,0.5
				c-0.1,0.2-0.2,0.4-0.2,0.6c0,0.3,0.1,0.5,0.4,0.7s0.6,0.3,0.9,0.3c0.4,0.1,0.8,0.1,1.3,0.1c0.5,0,1,0,1.5,0.1
				c0.5,0,1,0.1,1.5,0.2s0.9,0.2,1.3,0.4c0.4,0.2,0.7,0.5,0.9,0.8c0.2,0.4,0.4,0.8,0.4,1.4c0,0.5-0.1,1-0.4,1.5
				c-0.3,0.5-0.6,0.9-1.1,1.3c-0.5,0.4-1.1,0.7-1.8,0.9c-0.7,0.2-1.5,0.3-2.4,0.3c-0.9,0-1.7-0.1-2.4-0.3c-0.7-0.2-1.2-0.4-1.7-0.7
				s-0.8-0.6-1-1c-0.2-0.4-0.3-0.8-0.3-1.2c0-0.6,0.2-1.1,0.6-1.5c0.4-0.4,0.9-0.8,1.6-1c-0.4-0.2-0.7-0.4-0.9-0.7
				c-0.2-0.3-0.3-0.6-0.3-1.1c0-0.2,0-0.4,0.1-0.6c0.1-0.2,0.2-0.4,0.3-0.6c0.1-0.2,0.3-0.4,0.5-0.5s0.4-0.3,0.7-0.5
				c-0.6-0.3-1.1-0.8-1.4-1.4c-0.3-0.6-0.5-1.2-0.5-2c0-0.6,0.1-1.1,0.3-1.6c0.2-0.5,0.6-0.9,1-1.3c0.4-0.3,0.9-0.6,1.5-0.8
				c0.6-0.2,1.2-0.3,1.9-0.3c0.5,0,1,0.1,1.5,0.2c0.5,0.1,0.9,0.3,1.3,0.5H246z M243.8,95.2c0-0.3-0.1-0.5-0.3-0.7
				c-0.2-0.2-0.4-0.3-0.7-0.4c-0.3-0.1-0.6-0.2-1-0.2c-0.4,0-0.8-0.1-1.2-0.1s-0.9,0-1.3-0.1c-0.4,0-0.9-0.1-1.3-0.1
				c-0.5,0.2-0.8,0.5-1.1,0.8c-0.3,0.3-0.4,0.7-0.4,1.1c0,0.3,0.1,0.5,0.2,0.8c0.1,0.2,0.4,0.4,0.7,0.6c0.3,0.2,0.7,0.3,1.1,0.4
				s1,0.2,1.6,0.2c0.6,0,1.1-0.1,1.6-0.2c0.5-0.1,0.9-0.3,1.2-0.5c0.3-0.2,0.6-0.4,0.7-0.7C243.7,95.8,243.8,95.5,243.8,95.2z
				 M239.9,88.5c0.4,0,0.8-0.1,1.2-0.2s0.6-0.3,0.8-0.5c0.2-0.2,0.4-0.5,0.5-0.8c0.1-0.3,0.2-0.6,0.2-1c0-0.8-0.2-1.4-0.7-1.8
				c-0.5-0.4-1.1-0.7-2-0.7c-0.9,0-1.5,0.2-2,0.7c-0.5,0.4-0.7,1-0.7,1.8c0,0.4,0.1,0.7,0.2,1c0.1,0.3,0.3,0.6,0.5,0.8
				c0.2,0.2,0.5,0.4,0.8,0.5C239,88.4,239.4,88.5,239.9,88.5z"/>
			<path fill="#7D7D7F" d="M249.8,84c0.3-0.3,0.6-0.6,0.9-0.8c0.3-0.2,0.6-0.5,1-0.6c0.3-0.2,0.7-0.3,1.1-0.4s0.8-0.1,1.2-0.1
				c0.7,0,1.3,0.1,1.8,0.3c0.5,0.2,0.9,0.5,1.3,1c0.3,0.4,0.6,0.9,0.8,1.5s0.3,1.2,0.3,1.9v7.9h-2.2v-7.9c0-0.9-0.2-1.7-0.6-2.2
				c-0.4-0.5-1.1-0.8-1.9-0.8c-0.6,0-1.2,0.2-1.8,0.5c-0.6,0.3-1.1,0.7-1.5,1.3v9.1h-2.2V82.2h1.3c0.3,0,0.5,0.2,0.6,0.5L249.8,84z"
				/>
			<path fill="#7D7D7F" d="M271.8,82c0.9,0,1.7,0.2,2.4,0.5c0.7,0.3,1.3,0.7,1.9,1.3s0.9,1.2,1.2,2c0.3,0.8,0.4,1.7,0.4,2.6
				c0,1-0.1,1.9-0.4,2.6c-0.3,0.8-0.7,1.4-1.2,2s-1.1,1-1.9,1.3c-0.7,0.3-1.5,0.4-2.4,0.4c-0.9,0-1.7-0.1-2.5-0.4s-1.3-0.7-1.9-1.3
				c-0.5-0.6-0.9-1.2-1.2-2c-0.3-0.8-0.4-1.7-0.4-2.6c0-1,0.1-1.8,0.4-2.6c0.3-0.8,0.7-1.5,1.2-2c0.5-0.6,1.1-1,1.9-1.3
				C270.1,82.1,270.9,82,271.8,82z M271.8,93c1.2,0,2.1-0.4,2.7-1.2c0.6-0.8,0.9-2,0.9-3.4c0-1.5-0.3-2.6-0.9-3.4
				c-0.6-0.8-1.5-1.2-2.7-1.2c-0.6,0-1.2,0.1-1.6,0.3c-0.5,0.2-0.8,0.5-1.1,0.9s-0.5,0.9-0.7,1.5s-0.2,1.2-0.2,2
				c0,1.5,0.3,2.6,0.9,3.4C269.7,92.6,270.6,93,271.8,93z"/>
			<path fill="#7D7D7F" d="M280.5,94.5V84l-1.4-0.2c-0.2,0-0.3-0.1-0.4-0.2c-0.1-0.1-0.2-0.2-0.2-0.4v-0.9h2v-1.2
				c0-0.7,0.1-1.3,0.3-1.9s0.5-1,0.9-1.4c0.4-0.4,0.8-0.7,1.3-0.9c0.5-0.2,1.1-0.3,1.8-0.3c0.6,0,1.1,0.1,1.5,0.2l0,1.1
				c0,0.2-0.1,0.3-0.3,0.3c-0.2,0-0.5,0-0.8,0c-0.4,0-0.7,0-1,0.1c-0.3,0.1-0.6,0.3-0.8,0.5c-0.2,0.2-0.4,0.5-0.5,0.9
				c-0.1,0.4-0.2,0.8-0.2,1.3v1.1h3.6V84h-3.5v10.5H280.5z"/>
			<path fill="#7D7D7F" d="M305.8,90.9c0.1,0,0.2,0.1,0.3,0.2l0.9,1c-0.7,0.8-1.6,1.5-2.6,1.9c-1,0.5-2.3,0.7-3.7,0.7
				c-1.3,0-2.4-0.2-3.4-0.7c-1-0.4-1.9-1-2.6-1.8s-1.3-1.7-1.7-2.8c-0.4-1.1-0.6-2.3-0.6-3.6c0-1.3,0.2-2.5,0.6-3.6
				c0.4-1.1,1-2,1.8-2.8c0.8-0.8,1.7-1.4,2.7-1.8c1-0.4,2.2-0.7,3.5-0.7c1.2,0,2.3,0.2,3.3,0.6c1,0.4,1.8,0.9,2.5,1.6l-0.8,1.1
				c0,0.1-0.1,0.1-0.2,0.2c-0.1,0.1-0.2,0.1-0.3,0.1c-0.1,0-0.3-0.1-0.5-0.2c-0.2-0.2-0.5-0.3-0.8-0.5c-0.3-0.2-0.8-0.4-1.3-0.5
				c-0.5-0.2-1.1-0.2-1.9-0.2c-0.9,0-1.7,0.2-2.5,0.5c-0.7,0.3-1.4,0.8-1.9,1.4c-0.5,0.6-1,1.3-1.3,2.2s-0.5,1.8-0.5,2.9
				c0,1.1,0.2,2.1,0.5,2.9s0.7,1.6,1.3,2.2c0.5,0.6,1.2,1,1.9,1.3s1.5,0.5,2.4,0.5c0.5,0,1,0,1.4-0.1c0.4-0.1,0.8-0.2,1.2-0.3
				s0.7-0.3,1-0.5s0.6-0.4,0.9-0.7C305.5,91,305.7,90.9,305.8,90.9z"/>
			<path fill="#7D7D7F" d="M313.8,82c0.9,0,1.7,0.2,2.4,0.5c0.7,0.3,1.3,0.7,1.9,1.3s0.9,1.2,1.2,2c0.3,0.8,0.4,1.7,0.4,2.6
				c0,1-0.1,1.9-0.4,2.6c-0.3,0.8-0.7,1.4-1.2,2s-1.1,1-1.9,1.3c-0.7,0.3-1.5,0.4-2.4,0.4c-0.9,0-1.7-0.1-2.5-0.4s-1.3-0.7-1.9-1.3
				c-0.5-0.6-0.9-1.2-1.2-2c-0.3-0.8-0.4-1.7-0.4-2.6c0-1,0.1-1.8,0.4-2.6c0.3-0.8,0.7-1.5,1.2-2c0.5-0.6,1.1-1,1.9-1.3
				C312.1,82.1,312.9,82,313.8,82z M313.8,93c1.2,0,2.1-0.4,2.7-1.2c0.6-0.8,0.9-2,0.9-3.4c0-1.5-0.3-2.6-0.9-3.4
				c-0.6-0.8-1.5-1.2-2.7-1.2c-0.6,0-1.2,0.1-1.6,0.3c-0.5,0.2-0.8,0.5-1.1,0.9s-0.5,0.9-0.7,1.5s-0.2,1.2-0.2,2
				c0,1.5,0.3,2.6,0.9,3.4C311.7,92.6,312.6,93,313.8,93z"/>
			<path fill="#7D7D7F" d="M321.9,94.5V82.2h1.3c0.3,0,0.5,0.2,0.6,0.5l0.2,1.3c0.5-0.6,1-1,1.5-1.4c0.6-0.4,1.2-0.5,2-0.5
				c0.8,0,1.5,0.2,2,0.7c0.5,0.5,0.9,1.1,1.1,1.9c0.2-0.4,0.4-0.8,0.7-1.2c0.3-0.3,0.6-0.6,0.9-0.8c0.3-0.2,0.7-0.4,1.1-0.5
				c0.4-0.1,0.8-0.1,1.2-0.1c0.7,0,1.2,0.1,1.7,0.3s0.9,0.5,1.3,0.9s0.6,0.9,0.8,1.5c0.2,0.6,0.3,1.2,0.3,2v7.9h-2.2v-7.9
				c0-1-0.2-1.7-0.6-2.2c-0.4-0.5-1-0.8-1.8-0.8c-0.4,0-0.7,0.1-1,0.2c-0.3,0.1-0.6,0.3-0.8,0.6c-0.2,0.2-0.4,0.6-0.6,0.9
				c-0.1,0.4-0.2,0.8-0.2,1.3v7.9h-2.2v-7.9c0-1-0.2-1.7-0.6-2.2s-1-0.7-1.7-0.7c-0.5,0-1,0.1-1.5,0.4c-0.5,0.3-0.9,0.7-1.3,1.2v9.2
				H321.9z"/>
			<path fill="#7D7D7F" d="M343.6,84.1c0.5-0.6,1.1-1.2,1.8-1.5c0.7-0.4,1.5-0.6,2.3-0.6c0.7,0,1.4,0.1,1.9,0.4s1.1,0.7,1.5,1.2
				c0.4,0.5,0.7,1.2,0.9,2c0.2,0.8,0.3,1.7,0.3,2.7c0,0.9-0.1,1.8-0.4,2.5s-0.6,1.5-1.1,2c-0.5,0.6-1,1-1.7,1.4
				c-0.7,0.3-1.4,0.5-2.2,0.5c-0.8,0-1.4-0.1-1.9-0.4c-0.5-0.3-1-0.6-1.4-1.1v5.5h-2.2V82.2h1.3c0.3,0,0.5,0.2,0.6,0.5L343.6,84.1z
				 M343.7,91.5c0.4,0.5,0.8,0.9,1.3,1.1s1,0.3,1.6,0.3c1.2,0,2-0.4,2.7-1.2c0.6-0.8,0.9-2,0.9-3.5c0-0.8-0.1-1.5-0.2-2.1
				c-0.1-0.6-0.3-1-0.6-1.4c-0.3-0.4-0.6-0.6-1-0.8c-0.4-0.2-0.8-0.3-1.3-0.3c-0.7,0-1.3,0.2-1.9,0.5c-0.5,0.3-1,0.8-1.5,1.4V91.5z"
				/>
			<path fill="#7D7D7F" d="M356.9,76.6v18h-2.2v-18H356.9z"/>
			<path fill="#7D7D7F" d="M370,92.8c-0.3,0.3-0.6,0.6-1,0.8c-0.4,0.2-0.8,0.4-1.2,0.6c-0.4,0.2-0.9,0.3-1.3,0.3s-0.9,0.1-1.4,0.1
				c-0.9,0-1.6-0.1-2.4-0.4c-0.7-0.3-1.3-0.7-1.9-1.3c-0.5-0.6-0.9-1.2-1.2-2.1c-0.3-0.8-0.4-1.8-0.4-2.8c0-0.9,0.1-1.7,0.4-2.4
				c0.3-0.7,0.6-1.4,1.1-1.9c0.5-0.5,1.1-1,1.8-1.3c0.7-0.3,1.5-0.5,2.4-0.5c0.7,0,1.4,0.1,2.1,0.4c0.6,0.2,1.2,0.6,1.6,1.1
				c0.5,0.5,0.8,1,1.1,1.7s0.4,1.5,0.4,2.3c0,0.3,0,0.6-0.1,0.7c-0.1,0.1-0.2,0.2-0.4,0.2h-8.3c0,0.8,0.1,1.5,0.3,2
				c0.2,0.6,0.5,1.1,0.8,1.4c0.3,0.4,0.7,0.7,1.2,0.9c0.5,0.2,1,0.3,1.6,0.3c0.5,0,1-0.1,1.4-0.2s0.7-0.3,1-0.4
				c0.3-0.1,0.5-0.3,0.7-0.4c0.2-0.1,0.4-0.2,0.5-0.2c0.2,0,0.3,0.1,0.4,0.2L370,92.8z M368.2,87c0-0.5-0.1-1-0.2-1.4
				c-0.1-0.4-0.3-0.8-0.6-1.1c-0.3-0.3-0.6-0.5-1-0.7c-0.4-0.2-0.8-0.2-1.3-0.2c-1,0-1.9,0.3-2.5,0.9c-0.6,0.6-1,1.4-1.1,2.5H368.2z
				"/>
			<path fill="#7D7D7F" d="M382.3,94.5h-2.1c-0.2,0-0.3,0-0.4-0.1c-0.1-0.1-0.2-0.2-0.2-0.3l-3.1-4.8c0,0.1-0.1,0.2-0.1,0.3
				c0,0.1-0.1,0.2-0.2,0.3l-2.9,4.2c-0.1,0.1-0.2,0.2-0.3,0.3c-0.1,0.1-0.2,0.1-0.4,0.1h-1.9l4.3-6.3l-4.2-6h2.1
				c0.2,0,0.3,0,0.4,0.1c0.1,0.1,0.2,0.1,0.2,0.2l3,4.6c0.1-0.2,0.2-0.5,0.3-0.7l2.7-3.9c0.1-0.1,0.2-0.2,0.2-0.3
				c0.1-0.1,0.2-0.1,0.3-0.1h2l-4.2,5.9L382.3,94.5z"/>
			<path fill="#7D7D7F" d="M399,79.8c-0.1,0.1-0.2,0.2-0.2,0.3c-0.1,0.1-0.2,0.1-0.3,0.1c-0.1,0-0.3-0.1-0.5-0.2
				c-0.2-0.1-0.4-0.3-0.7-0.5c-0.3-0.2-0.6-0.3-1-0.5c-0.4-0.1-0.9-0.2-1.4-0.2c-0.5,0-1,0.1-1.4,0.2s-0.7,0.3-1,0.6
				c-0.3,0.2-0.5,0.5-0.6,0.9c-0.1,0.3-0.2,0.7-0.2,1.1c0,0.5,0.1,0.9,0.4,1.2c0.2,0.3,0.6,0.6,1,0.8c0.4,0.2,0.8,0.4,1.3,0.6
				c0.5,0.2,1,0.3,1.5,0.5c0.5,0.2,1,0.4,1.5,0.6c0.5,0.2,0.9,0.5,1.3,0.8c0.4,0.3,0.7,0.8,1,1.3c0.2,0.5,0.4,1.1,0.4,1.8
				c0,0.8-0.1,1.5-0.4,2.2c-0.3,0.7-0.6,1.3-1.1,1.8c-0.5,0.5-1.1,0.9-1.8,1.2c-0.7,0.3-1.6,0.4-2.5,0.4c-1.1,0-2.2-0.2-3.1-0.6
				c-0.9-0.4-1.7-1-2.4-1.7l0.7-1.1c0.1-0.1,0.1-0.2,0.2-0.2c0.1-0.1,0.2-0.1,0.3-0.1c0.1,0,0.2,0,0.4,0.1c0.1,0.1,0.3,0.2,0.5,0.3
				c0.2,0.1,0.4,0.3,0.6,0.4s0.5,0.3,0.8,0.4s0.6,0.2,1,0.3c0.4,0.1,0.8,0.1,1.2,0.1c0.6,0,1.1-0.1,1.5-0.2c0.4-0.2,0.8-0.4,1.1-0.7
				s0.5-0.6,0.7-1c0.2-0.4,0.2-0.8,0.2-1.3c0-0.5-0.1-1-0.4-1.3c-0.2-0.3-0.6-0.6-0.9-0.8c-0.4-0.2-0.8-0.4-1.3-0.6
				c-0.5-0.2-1-0.3-1.5-0.5c-0.5-0.2-1-0.4-1.5-0.6c-0.5-0.2-1-0.5-1.3-0.9c-0.4-0.3-0.7-0.8-0.9-1.3c-0.2-0.5-0.4-1.2-0.4-1.9
				c0-0.6,0.1-1.2,0.4-1.8c0.2-0.6,0.6-1.1,1-1.5c0.5-0.4,1-0.8,1.7-1.1c0.7-0.3,1.4-0.4,2.3-0.4c1,0,1.9,0.2,2.7,0.5
				s1.5,0.8,2.1,1.3L399,79.8z"/>
			<path fill="#7D7D7F" d="M404.3,83.8c0.5-0.6,1.1-1,1.8-1.3c0.6-0.3,1.4-0.5,2.2-0.5c0.7,0,1.3,0.1,1.8,0.3c0.5,0.2,0.9,0.5,1.3,1
				c0.3,0.4,0.6,0.9,0.8,1.5s0.3,1.2,0.3,1.9v7.9h-2.2v-7.9c0-0.9-0.2-1.7-0.6-2.2c-0.4-0.5-1.1-0.8-1.9-0.8c-0.6,0-1.2,0.2-1.8,0.5
				c-0.6,0.3-1.1,0.7-1.5,1.3v9.1h-2.2v-18h2.2V83.8z"/>
			<path fill="#7D7D7F" d="M418,78.3c0,0.2,0,0.4-0.1,0.6s-0.2,0.3-0.3,0.5c-0.1,0.1-0.3,0.3-0.5,0.3c-0.2,0.1-0.4,0.1-0.6,0.1
				c-0.2,0-0.4,0-0.6-0.1c-0.2-0.1-0.3-0.2-0.5-0.3c-0.1-0.1-0.2-0.3-0.3-0.5s-0.1-0.4-0.1-0.6c0-0.2,0-0.4,0.1-0.6
				c0.1-0.2,0.2-0.4,0.3-0.5c0.1-0.1,0.3-0.3,0.5-0.3c0.2-0.1,0.4-0.1,0.6-0.1c0.2,0,0.4,0,0.6,0.1c0.2,0.1,0.4,0.2,0.5,0.3
				c0.1,0.1,0.3,0.3,0.3,0.5C417.9,77.9,418,78.1,418,78.3z M417.5,82.2v12.3h-2.2V82.2H417.5z"/>
			<path fill="#7D7D7F" d="M422.7,84.1c0.5-0.6,1.1-1.2,1.8-1.5c0.7-0.4,1.5-0.6,2.3-0.6c0.7,0,1.4,0.1,1.9,0.4s1.1,0.7,1.5,1.2
				c0.4,0.5,0.7,1.2,0.9,2c0.2,0.8,0.3,1.7,0.3,2.7c0,0.9-0.1,1.8-0.4,2.5s-0.6,1.5-1.1,2c-0.5,0.6-1,1-1.7,1.4
				c-0.7,0.3-1.4,0.5-2.2,0.5c-0.8,0-1.4-0.1-1.9-0.4c-0.5-0.3-1-0.6-1.4-1.1v5.5h-2.2V82.2h1.3c0.3,0,0.5,0.2,0.6,0.5L422.7,84.1z
				 M422.8,91.5c0.4,0.5,0.8,0.9,1.3,1.1s1,0.3,1.6,0.3c1.2,0,2-0.4,2.7-1.2c0.6-0.8,0.9-2,0.9-3.5c0-0.8-0.1-1.5-0.2-2.1
				c-0.1-0.6-0.3-1-0.6-1.4c-0.3-0.4-0.6-0.6-1-0.8c-0.4-0.2-0.8-0.3-1.3-0.3c-0.7,0-1.3,0.2-1.9,0.5c-0.5,0.3-1,0.8-1.5,1.4V91.5z"
				/>
			<path fill="#7D7D7F" d="M441,84.2c-0.1,0.2-0.2,0.3-0.5,0.3c-0.1,0-0.3,0-0.4-0.1c-0.2-0.1-0.3-0.2-0.6-0.3
				c-0.2-0.1-0.5-0.2-0.8-0.3c-0.3-0.1-0.7-0.1-1.1-0.1c-0.4,0-0.7,0-1,0.1c-0.3,0.1-0.5,0.2-0.8,0.4c-0.2,0.2-0.4,0.4-0.5,0.6
				c-0.1,0.2-0.2,0.4-0.2,0.7c0,0.3,0.1,0.6,0.3,0.8s0.4,0.4,0.7,0.5c0.3,0.2,0.6,0.3,1,0.4s0.8,0.2,1.2,0.4
				c0.4,0.1,0.8,0.3,1.2,0.4c0.4,0.2,0.7,0.4,1,0.6c0.3,0.2,0.5,0.5,0.7,0.9c0.2,0.4,0.3,0.8,0.3,1.3c0,0.6-0.1,1.1-0.3,1.6
				s-0.5,0.9-0.9,1.3c-0.4,0.4-0.9,0.6-1.5,0.8c-0.6,0.2-1.2,0.3-2,0.3c-0.9,0-1.6-0.1-2.3-0.4c-0.7-0.3-1.3-0.6-1.8-1.1l0.5-0.8
				c0.1-0.1,0.1-0.2,0.2-0.2c0.1-0.1,0.2-0.1,0.3-0.1c0.1,0,0.3,0.1,0.5,0.2c0.2,0.1,0.4,0.2,0.6,0.4c0.2,0.1,0.5,0.3,0.8,0.4
				c0.3,0.1,0.7,0.2,1.2,0.2c0.4,0,0.8-0.1,1.1-0.2c0.3-0.1,0.6-0.3,0.8-0.4c0.2-0.2,0.4-0.4,0.5-0.6c0.1-0.2,0.2-0.5,0.2-0.8
				c0-0.3-0.1-0.6-0.3-0.8s-0.4-0.4-0.7-0.6s-0.6-0.3-1-0.4c-0.4-0.1-0.8-0.2-1.2-0.4c-0.4-0.1-0.8-0.3-1.2-0.4
				c-0.4-0.2-0.7-0.4-1-0.6s-0.5-0.6-0.7-0.9c-0.2-0.4-0.3-0.8-0.3-1.3c0-0.5,0.1-0.9,0.3-1.4c0.2-0.4,0.5-0.8,0.9-1.1
				c0.4-0.3,0.8-0.6,1.4-0.8c0.5-0.2,1.2-0.3,1.9-0.3c0.8,0,1.5,0.1,2.2,0.4c0.6,0.3,1.2,0.6,1.7,1.1L441,84.2z"/>
		</g>
		<g>
			<path fill="#608F34" d="M7.1,44.4c21.4-6.8,44.6-12.8,58.1-16.1c34.9-8.7,54.8-18,60-12c1.1,1.3,2.7,4.1-0.8,8.5
				c-2.1,2.7-8.9,11.1-10.6,11.9L7.1,44.4z"/>
			<path fill="#608F34" d="M37.3,32.6l59.9-15.8l2-4.8c0.7-1.5-0.9-3.1-2.4-2.5L37.3,32.6z"/>
			<path fill="#2A47BD" d="M45.5,63.6c2.6-1.2,20.9-5.2,39.4-0.8c3.9,0.9,13.6,2.7,21.3,2.1c10.1-0.8,20.2-10.3,20-11
				c0,0-8.2,2.4-19.1,2.1c-11.7-0.3-14.9-3.8-26.1-4.5c-15.6-1-22.4,3.6-25.1,4.9C51.4,58.4,44.2,64.2,45.5,63.6z"/>
			<path fill="#608F34" d="M81.1,48.7c2.4,0.1,4.4,0.4,6.3,0.8h10.7c2.5,0,4.9-1,6.7-2.7l6.8-6.8l-78,5.5l33.4,4
				C70.6,48.7,75.2,48.3,81.1,48.7z"/>
		</g>
	</g>
</g>
<g id="Layer_3">
</g>
</svg>
